<svg width="640" height="34" viewBox="0 0 640 34" fill="none" xmlns="http://www.w3.org/2000/svg">
<g clip-path="url(#clip0_1138_2)">
<path d="M552.379 32.0073L623.457 32.0074C632.295 32.0074 639.46 24.8425 639.46 16.0042L639.46 16.0033C639.46 7.165 632.295 0.000142079 623.457 0.000141693L552.379 0.000138586C543.541 0.0001382 536.376 7.165 536.376 16.0033L536.376 16.0042C536.376 24.8425 543.541 32.0073 552.379 32.0073Z" stroke="#444444" stroke-width="11.6964" stroke-linecap="round" stroke-linejoin="round"/>
<path d="M451.58 21.8704L545.521 21.8704C548.534 21.8704 550.977 19.4276 550.977 16.4144C550.977 13.4011 548.534 10.9584 545.521 10.9584L451.58 10.9584C448.567 10.9584 446.124 13.4011 446.124 16.4143C446.124 19.4276 448.567 21.8704 451.58 21.8704Z" stroke="#444444" stroke-width="11.6964" stroke-linecap="round" stroke-linejoin="round"/>
<path d="M373.875 32.2217L444.952 32.2217C453.791 32.2217 460.956 25.0568 460.956 16.2185L460.956 16.2177C460.956 7.37936 453.791 0.214498 444.952 0.214497L373.875 0.214494C365.036 0.214494 357.871 7.37935 357.871 16.2177L357.871 16.2185C357.871 25.0568 365.036 32.2217 373.875 32.2217Z" stroke="#444444" stroke-width="11.6964" stroke-linecap="round" stroke-linejoin="round"/>
<path d="M273.076 22.0847L367.016 22.0847C370.029 22.0847 372.472 19.6421 372.472 16.6288C372.472 13.6156 370.029 11.1728 367.016 11.1728L273.076 11.1728C270.063 11.1728 267.62 13.6156 267.62 16.6288C267.62 19.6421 270.063 22.0847 273.076 22.0847Z" stroke="#444444" stroke-width="11.6964" stroke-linecap="round" stroke-linejoin="round"/>
<path d="M195.134 32.6311L266.212 32.6311C275.05 32.6311 282.215 25.4662 282.215 16.6278L282.215 16.6271C282.215 7.78878 275.05 0.623921 266.212 0.623921L195.134 0.623918C186.295 0.623917 179.131 7.78878 179.131 16.6271L179.131 16.6278C179.131 25.4661 186.295 32.6311 195.134 32.6311Z" stroke="#444444" stroke-width="11.6964" stroke-linecap="round" stroke-linejoin="round"/>
<path d="M94.3351 22.4942L188.275 22.4942C191.289 22.4942 193.731 20.0514 193.731 17.0381C193.731 14.0249 191.289 11.5822 188.275 11.5822L94.3351 11.5822C91.3218 11.5822 88.8791 14.0249 88.8791 17.0381C88.8791 20.0514 91.3218 22.4942 94.3351 22.4942Z" stroke="#444444" stroke-width="11.6964" stroke-linecap="round" stroke-linejoin="round"/>
<path d="M16.0034 33.4497L87.0813 33.4497C95.9196 33.4497 103.084 26.2849 103.084 17.4465L103.084 17.4457C103.084 8.60738 95.9196 1.44252 87.0813 1.44252L16.0034 1.44252C7.16512 1.44252 0.000191821 8.60738 0.000191434 17.4457L0.000191434 17.4465C0.000191048 26.2849 7.16512 33.4497 16.0034 33.4497Z" stroke="#444444" stroke-width="11.6964" stroke-linecap="round" stroke-linejoin="round"/>
</g>
<defs>
<clipPath id="clip0_1138_2">
<rect width="33.4497" height="639.46" fill="white" transform="translate(639.46 2.79517e-05) rotate(90)"/>
</clipPath>
</defs>
</svg>
